<svg width="262" height="245" viewBox="0 0 262 245" fill="none" xmlns="http://www.w3.org/2000/svg">
<path d="M1.68487 132.936C1.68487 131.16 2.00487 129.624 2.64487 128.328C3.30087 127.032 4.23687 126.032 5.45287 125.328C6.66887 124.608 8.11687 124.248 9.79687 124.248C11.4609 124.248 12.9009 124.608 14.1169 125.328C15.3329 126.032 16.2689 127.032 16.9249 128.328C17.5969 129.624 17.9329 131.152 17.9329 132.912C17.9329 134.688 17.5969 136.232 16.9249 137.544C16.2689 138.84 15.3329 139.848 14.1169 140.568C12.9009 141.288 11.4609 141.648 9.79687 141.648C8.11687 141.648 6.66887 141.288 5.45287 140.568C4.25287 139.848 3.32487 138.84 2.66887 137.544C2.01287 136.232 1.68487 134.696 1.68487 132.936ZM4.92487 132.936C4.92487 134.84 5.33287 136.328 6.14887 137.4C6.96487 138.472 8.18087 139.008 9.79687 139.008C11.3649 139.008 12.5729 138.472 13.4209 137.4C14.2689 136.328 14.6929 134.84 14.6929 132.936C14.6929 131.016 14.2689 129.528 13.4209 128.472C12.5889 127.416 11.3809 126.888 9.79687 126.888C8.18087 126.888 6.96487 127.416 6.14887 128.472C5.33287 129.528 4.92487 131.016 4.92487 132.936ZM20.8875 141.408V132.312C20.8875 131.816 20.8715 131.312 20.8395 130.8C20.8075 130.288 20.7595 129.784 20.6955 129.288H23.5995L23.8395 131.688H23.5515C23.9355 130.84 24.5035 130.192 25.2555 129.744C26.0075 129.28 26.8795 129.048 27.8715 129.048C29.2955 129.048 30.3675 129.448 31.0875 130.248C31.8075 131.048 32.1675 132.296 32.1675 133.992V141.408H29.1675V134.136C29.1675 133.16 28.9755 132.464 28.5915 132.048C28.2235 131.616 27.6635 131.4 26.9115 131.4C25.9835 131.4 25.2475 131.688 24.7035 132.264C24.1595 132.84 23.8875 133.608 23.8875 134.568V141.408H20.8875ZM35.3484 141.408V123.744H38.3484V141.408H35.3484ZM41.6062 141.408V129.288H44.6062V141.408H41.6062ZM41.4382 127.008V124.08H44.7742V127.008H41.4382ZM47.8641 141.408V132.312C47.8641 131.816 47.8481 131.312 47.8161 130.8C47.7841 130.288 47.7361 129.784 47.6721 129.288H50.5761L50.8161 131.688H50.5281C50.9121 130.84 51.4801 130.192 52.2321 129.744C52.9841 129.28 53.8561 129.048 54.8481 129.048C56.2721 129.048 57.3441 129.448 58.0641 130.248C58.7841 131.048 59.1441 132.296 59.1441 133.992V141.408H56.1441V134.136C56.1441 133.16 55.9521 132.464 55.5681 132.048C55.2001 131.616 54.6401 131.4 53.8881 131.4C52.9601 131.4 52.2241 131.688 51.6801 132.264C51.1361 132.84 50.8641 133.608 50.8641 134.568V141.408H47.8641ZM68.181 141.648C66.149 141.648 64.557 141.088 63.405 139.968C62.253 138.848 61.677 137.312 61.677 135.36C61.677 134.096 61.925 132.992 62.421 132.048C62.917 131.104 63.605 130.368 64.485 129.84C65.381 129.312 66.421 129.048 67.605 129.048C68.773 129.048 69.749 129.296 70.533 129.792C71.317 130.288 71.909 130.984 72.309 131.88C72.725 132.776 72.933 133.824 72.933 135.024V135.816H64.101V134.232H70.797L70.389 134.568C70.389 133.448 70.149 132.592 69.669 132C69.205 131.408 68.525 131.112 67.629 131.112C66.637 131.112 65.869 131.464 65.325 132.168C64.797 132.872 64.533 133.856 64.533 135.12V135.432C64.533 136.744 64.853 137.728 65.493 138.384C66.149 139.024 67.069 139.344 68.253 139.344C68.941 139.344 69.581 139.256 70.173 139.08C70.781 138.888 71.357 138.584 71.901 138.168L72.789 140.184C72.213 140.648 71.525 141.008 70.725 141.264C69.925 141.52 69.077 141.648 68.181 141.648ZM82.0594 146.592V132.312C82.0594 131.816 82.0434 131.312 82.0114 130.8C81.9794 130.288 81.9314 129.784 81.8674 129.288H84.7714L85.0354 131.832H84.7714C85.0114 130.984 85.5154 130.312 86.2834 129.816C87.0674 129.304 87.9714 129.048 88.9954 129.048C90.0674 129.048 91.0034 129.304 91.8034 129.816C92.6034 130.312 93.2274 131.032 93.6754 131.976C94.1234 132.904 94.3474 134.024 94.3474 135.336C94.3474 136.648 94.1234 137.776 93.6754 138.72C93.2274 139.664 92.6034 140.392 91.8034 140.904C91.0034 141.4 90.0674 141.648 88.9954 141.648C87.9874 141.648 87.0994 141.4 86.3314 140.904C85.5634 140.408 85.0514 139.744 84.7954 138.912H85.0594V146.592H82.0594ZM88.1554 139.344C89.1154 139.344 89.8834 139.016 90.4594 138.36C91.0354 137.688 91.3234 136.68 91.3234 135.336C91.3234 133.992 91.0354 132.992 90.4594 132.336C89.8834 131.68 89.1154 131.352 88.1554 131.352C87.2114 131.352 86.4514 131.68 85.8754 132.336C85.2994 132.992 85.0114 133.992 85.0114 135.336C85.0114 136.68 85.2994 137.688 85.8754 138.36C86.4514 139.016 87.2114 139.344 88.1554 139.344ZM96.9422 141.408V123.744H99.9422V131.712H99.6062C99.9742 130.848 100.542 130.192 101.31 129.744C102.078 129.28 102.958 129.048 103.95 129.048C105.39 129.048 106.462 129.456 107.166 130.272C107.87 131.072 108.222 132.296 108.222 133.944V141.408H105.222V134.088C105.222 133.144 105.038 132.464 104.67 132.048C104.318 131.616 103.75 131.4 102.966 131.4C102.054 131.4 101.318 131.688 100.758 132.264C100.214 132.824 99.9422 133.576 99.9422 134.52V141.408H96.9422ZM116.083 141.648C115.027 141.648 114.099 141.4 113.299 140.904C112.499 140.392 111.875 139.664 111.427 138.72C110.979 137.776 110.755 136.648 110.755 135.336C110.755 134.024 110.979 132.904 111.427 131.976C111.875 131.032 112.499 130.312 113.299 129.816C114.099 129.304 115.027 129.048 116.083 129.048C117.107 129.048 118.003 129.304 118.771 129.816C119.555 130.312 120.075 130.984 120.331 131.832H120.067L120.331 129.288H123.211C123.163 129.784 123.115 130.288 123.067 130.8C123.035 131.312 123.019 131.816 123.019 132.312V141.408H120.043L120.019 138.912H120.307C120.051 139.744 119.531 140.408 118.747 140.904C117.963 141.4 117.075 141.648 116.083 141.648ZM116.923 139.344C117.867 139.344 118.627 139.016 119.203 138.36C119.779 137.688 120.067 136.68 120.067 135.336C120.067 133.992 119.779 132.992 119.203 132.336C118.627 131.68 117.867 131.352 116.923 131.352C115.979 131.352 115.219 131.68 114.643 132.336C114.067 132.992 113.779 133.992 113.779 135.336C113.779 136.68 114.059 137.688 114.619 138.36C115.195 139.016 115.963 139.344 116.923 139.344ZM126.262 141.408V132.384C126.262 131.872 126.246 131.352 126.214 130.824C126.198 130.296 126.158 129.784 126.094 129.288H128.998L129.334 132.6H128.854C129.014 131.8 129.278 131.136 129.646 130.608C130.03 130.08 130.494 129.688 131.038 129.432C131.582 129.176 132.174 129.048 132.814 129.048C133.102 129.048 133.334 129.064 133.51 129.096C133.686 129.112 133.862 129.152 134.038 129.216L134.014 131.856C133.71 131.728 133.446 131.648 133.222 131.616C133.014 131.584 132.75 131.568 132.43 131.568C131.742 131.568 131.158 131.712 130.678 132C130.214 132.288 129.862 132.688 129.622 133.2C129.398 133.712 129.286 134.296 129.286 134.952V141.408H126.262ZM135.708 141.408V132.312C135.708 131.816 135.692 131.312 135.66 130.8C135.628 130.288 135.58 129.784 135.516 129.288H138.42L138.66 131.688H138.372C138.708 130.856 139.22 130.208 139.908 129.744C140.612 129.28 141.444 129.048 142.404 129.048C143.364 129.048 144.156 129.28 144.78 129.744C145.42 130.192 145.868 130.896 146.124 131.856H145.74C146.076 130.992 146.628 130.312 147.396 129.816C148.164 129.304 149.044 129.048 150.036 129.048C151.396 129.048 152.412 129.448 153.084 130.248C153.756 131.048 154.092 132.296 154.092 133.992V141.408H151.092V134.112C151.092 133.152 150.932 132.464 150.612 132.048C150.292 131.616 149.78 131.4 149.076 131.4C148.244 131.4 147.588 131.696 147.108 132.288C146.628 132.864 146.388 133.648 146.388 134.64V141.408H143.388V134.112C143.388 133.152 143.228 132.464 142.908 132.048C142.588 131.616 142.076 131.4 141.372 131.4C140.54 131.4 139.884 131.696 139.404 132.288C138.94 132.864 138.708 133.648 138.708 134.64V141.408H135.708ZM161.974 141.648C160.918 141.648 159.99 141.4 159.19 140.904C158.39 140.392 157.766 139.664 157.318 138.72C156.87 137.776 156.646 136.648 156.646 135.336C156.646 134.024 156.87 132.904 157.318 131.976C157.766 131.032 158.39 130.312 159.19 129.816C159.99 129.304 160.918 129.048 161.974 129.048C162.998 129.048 163.894 129.304 164.662 129.816C165.446 130.312 165.966 130.984 166.222 131.832H165.958L166.222 129.288H169.102C169.054 129.784 169.006 130.288 168.958 130.8C168.926 131.312 168.91 131.816 168.91 132.312V141.408H165.934L165.91 138.912H166.198C165.942 139.744 165.422 140.408 164.638 140.904C163.854 141.4 162.966 141.648 161.974 141.648ZM162.814 139.344C163.758 139.344 164.518 139.016 165.094 138.36C165.67 137.688 165.958 136.68 165.958 135.336C165.958 133.992 165.67 132.992 165.094 132.336C164.518 131.68 163.758 131.352 162.814 131.352C161.87 131.352 161.11 131.68 160.534 132.336C159.958 132.992 159.67 133.992 159.67 135.336C159.67 136.68 159.95 137.688 160.51 138.36C161.086 139.016 161.854 139.344 162.814 139.344ZM177.745 141.648C176.497 141.648 175.401 141.392 174.457 140.88C173.529 140.368 172.809 139.64 172.297 138.696C171.785 137.736 171.529 136.6 171.529 135.288C171.529 133.976 171.785 132.856 172.297 131.928C172.825 131 173.553 130.288 174.481 129.792C175.409 129.296 176.497 129.048 177.745 129.048C178.545 129.048 179.321 129.176 180.073 129.432C180.841 129.672 181.465 130.024 181.945 130.488L181.033 132.576C180.601 132.176 180.113 131.88 179.569 131.688C179.041 131.48 178.521 131.376 178.009 131.376C176.937 131.376 176.097 131.712 175.489 132.384C174.897 133.056 174.601 134.032 174.601 135.312C174.601 136.592 174.897 137.576 175.489 138.264C176.097 138.952 176.937 139.296 178.009 139.296C178.505 139.296 179.017 139.2 179.545 139.008C180.089 138.816 180.585 138.52 181.033 138.12L181.945 140.184C181.449 140.648 180.817 141.008 180.049 141.264C179.297 141.52 178.529 141.648 177.745 141.648ZM184.218 146.856L183.522 144.48C184.274 144.32 184.906 144.136 185.418 143.928C185.93 143.72 186.354 143.448 186.69 143.112C187.026 142.776 187.306 142.344 187.53 141.816L188.13 140.4L188.058 141.576L182.778 129.288H185.97L189.762 138.744H189.066L192.882 129.288H195.906L190.386 142.08C190.018 142.944 189.618 143.656 189.186 144.216C188.754 144.792 188.29 145.248 187.794 145.584C187.298 145.936 186.754 146.208 186.162 146.4C185.57 146.592 184.922 146.744 184.218 146.856Z" fill="black"/>
<path d="M2.488 181V169.72H6.792C7.976 169.72 8.888 169.976 9.528 170.488C10.1787 170.989 10.504 171.715 10.504 172.664C10.504 173.379 10.2853 173.971 9.848 174.44C9.42133 174.909 8.83467 175.219 8.088 175.368V175.144C8.92 175.229 9.576 175.512 10.056 175.992C10.536 176.472 10.776 177.117 10.776 177.928C10.776 178.931 10.4507 179.693 9.8 180.216C9.14933 180.739 8.216 181 7 181H2.488ZM3.448 180.152H6.936C7.8 180.152 8.488 179.987 9 179.656C9.52267 179.315 9.784 178.744 9.784 177.944C9.784 177.123 9.52267 176.547 9 176.216C8.488 175.875 7.8 175.704 6.936 175.704H3.448V180.152ZM3.448 174.872H6.68C7.608 174.872 8.312 174.691 8.792 174.328C9.272 173.955 9.512 173.416 9.512 172.712C9.512 172.008 9.272 171.475 8.792 171.112C8.312 170.739 7.608 170.552 6.68 170.552H3.448V174.872ZM15.9565 181.128C15.0178 181.128 14.3032 180.877 13.8125 180.376C13.3325 179.864 13.0925 179.08 13.0925 178.024V172.984H14.0685V177.96C14.0685 178.771 14.2338 179.363 14.5645 179.736C14.8952 180.109 15.4018 180.296 16.0845 180.296C16.8418 180.296 17.4498 180.051 17.9085 179.56C18.3778 179.059 18.6125 178.397 18.6125 177.576V172.984H19.5885V181H18.6285V179.112H18.8365C18.6125 179.763 18.2445 180.264 17.7325 180.616C17.2312 180.957 16.6392 181.128 15.9565 181.128ZM21.8819 184.632L21.6419 183.784C22.1432 183.667 22.5592 183.523 22.8899 183.352C23.2205 183.192 23.4979 182.979 23.7219 182.712C23.9459 182.445 24.1432 182.115 24.3139 181.72L24.7299 180.76L24.7139 181.192L21.2099 172.984H22.2979L25.3539 180.392H24.9539L27.9779 172.984H29.0339L25.3219 181.768C25.1192 182.259 24.8952 182.664 24.6499 182.984C24.4152 183.315 24.1592 183.587 23.8819 183.8C23.6045 184.024 23.3005 184.2 22.9699 184.328C22.6392 184.456 22.2765 184.557 21.8819 184.632ZM38.4444 184.632L38.2044 183.784C38.7057 183.667 39.1217 183.523 39.4524 183.352C39.783 183.192 40.0604 182.979 40.2844 182.712C40.5084 182.445 40.7057 182.115 40.8764 181.72L41.2924 180.76L41.2764 181.192L37.7724 172.984H38.8604L41.9164 180.392H41.5164L44.5404 172.984H45.5964L41.8844 181.768C41.6817 182.259 41.4577 182.664 41.2124 182.984C40.9777 183.315 40.7217 183.587 40.4444 183.8C40.167 184.024 39.863 184.2 39.5324 184.328C39.2017 184.456 38.839 184.557 38.4444 184.632ZM50.2929 181.128C49.5355 181.128 48.8795 180.963 48.3249 180.632C47.7809 180.301 47.3595 179.827 47.0609 179.208C46.7622 178.589 46.6129 177.848 46.6129 176.984C46.6129 176.131 46.7622 175.395 47.0609 174.776C47.3595 174.157 47.7809 173.683 48.3249 173.352C48.8795 173.011 49.5355 172.84 50.2929 172.84C51.0395 172.84 51.6849 173.011 52.2289 173.352C52.7835 173.683 53.2102 174.157 53.5089 174.776C53.8182 175.395 53.9729 176.131 53.9729 176.984C53.9729 177.848 53.8182 178.589 53.5089 179.208C53.2102 179.827 52.7835 180.301 52.2289 180.632C51.6849 180.963 51.0395 181.128 50.2929 181.128ZM50.2929 180.296C51.1035 180.296 51.7542 180.013 52.2449 179.448C52.7355 178.883 52.9809 178.061 52.9809 176.984C52.9809 175.907 52.7355 175.085 52.2449 174.52C51.7542 173.955 51.1035 173.672 50.2929 173.672C49.4715 173.672 48.8155 173.955 48.3249 174.52C47.8449 175.085 47.6049 175.907 47.6049 176.984C47.6049 178.061 47.8449 178.883 48.3249 179.448C48.8155 180.013 49.4715 180.296 50.2929 180.296ZM58.9253 181.128C57.9866 181.128 57.2719 180.877 56.7812 180.376C56.3013 179.864 56.0613 179.08 56.0613 178.024V172.984H57.0373V177.96C57.0373 178.771 57.2026 179.363 57.5333 179.736C57.8639 180.109 58.3706 180.296 59.0533 180.296C59.8106 180.296 60.4186 180.051 60.8773 179.56C61.3466 179.059 61.5813 178.397 61.5813 177.576V172.984H62.5573V181H61.5973V179.112H61.8053C61.5813 179.763 61.2133 180.264 60.7013 180.616C60.1999 180.957 59.6079 181.128 58.9253 181.128ZM65.2026 181V174.856C65.2026 174.547 65.192 174.237 65.1706 173.928C65.16 173.608 65.1333 173.293 65.0906 172.984H66.0506L66.1786 174.824L65.9866 174.84C66.0933 174.392 66.2853 174.024 66.5626 173.736C66.84 173.437 67.16 173.213 67.5226 173.064C67.8853 172.915 68.2586 172.84 68.6426 172.84C68.7813 172.84 68.9093 172.851 69.0266 172.872C69.1546 172.883 69.272 172.904 69.3786 172.936L69.3466 173.816C69.2186 173.773 69.0906 173.747 68.9626 173.736C68.8346 173.725 68.696 173.72 68.5466 173.72C68.0666 173.72 67.6453 173.837 67.2826 174.072C66.9306 174.307 66.6586 174.605 66.4666 174.968C66.2746 175.331 66.1786 175.699 66.1786 176.072V181H65.2026ZM74.8749 181V174.776C74.8749 174.488 74.8642 174.195 74.8429 173.896C74.8215 173.597 74.7895 173.293 74.7469 172.984H75.7069L75.8509 174.824H75.6589C75.8615 174.195 76.1975 173.709 76.6669 173.368C77.1362 173.016 77.7069 172.84 78.3789 172.84C79.0615 172.84 79.6162 173.005 80.0429 173.336C80.4695 173.667 80.7522 174.179 80.8909 174.872H80.6509C80.8429 174.253 81.1949 173.763 81.7069 173.4C82.2189 173.027 82.8215 172.84 83.5149 172.84C84.3895 172.84 85.0509 173.091 85.4989 173.592C85.9469 174.093 86.1709 174.877 86.1709 175.944V181H85.1949V176.008C85.1949 175.197 85.0509 174.611 84.7629 174.248C84.4749 173.875 84.0055 173.688 83.3549 173.688C82.6295 173.688 82.0535 173.933 81.6269 174.424C81.2109 174.915 81.0029 175.576 81.0029 176.408V181H80.0269V176.008C80.0269 175.197 79.8829 174.611 79.5949 174.248C79.3069 173.875 78.8429 173.688 78.2029 173.688C77.4775 173.688 76.9015 173.933 76.4749 174.424C76.0589 174.915 75.8509 175.576 75.8509 176.408V181H74.8749ZM92.2211 181.128C91.0051 181.128 90.0398 180.765 89.3251 180.04C88.6211 179.315 88.2691 178.307 88.2691 177.016C88.2691 176.163 88.4238 175.427 88.7331 174.808C89.0531 174.189 89.4958 173.709 90.0611 173.368C90.6265 173.016 91.2825 172.84 92.0291 172.84C92.7438 172.84 93.3465 172.995 93.8371 173.304C94.3278 173.603 94.7065 174.035 94.9731 174.6C95.2398 175.155 95.3731 175.816 95.3731 176.584V177.032H88.9731V176.328H94.7651L94.4931 176.536C94.4931 175.629 94.2851 174.92 93.8691 174.408C93.4531 173.885 92.8345 173.624 92.0131 173.624C91.1385 173.624 90.4558 173.928 89.9651 174.536C89.4745 175.133 89.2291 175.928 89.2291 176.92V177.032C89.2291 178.099 89.4905 178.909 90.0131 179.464C90.5465 180.019 91.2878 180.296 92.2371 180.296C92.7278 180.296 93.1865 180.221 93.6131 180.072C94.0398 179.923 94.4505 179.667 94.8451 179.304L95.2451 180.024C94.9038 180.376 94.4611 180.648 93.9171 180.84C93.3731 181.032 92.8078 181.128 92.2211 181.128ZM100.493 181.128C99.778 181.128 99.154 180.963 98.6206 180.632C98.0873 180.301 97.6766 179.827 97.3886 179.208C97.1006 178.589 96.9566 177.848 96.9566 176.984C96.9566 176.12 97.1006 175.384 97.3886 174.776C97.6766 174.157 98.0873 173.683 98.6206 173.352C99.154 173.011 99.778 172.84 100.493 172.84C101.229 172.84 101.863 173.032 102.397 173.416C102.941 173.789 103.303 174.307 103.485 174.968H103.293V169.224H104.269V181H103.309V178.984H103.485C103.303 179.656 102.941 180.184 102.397 180.568C101.863 180.941 101.229 181.128 100.493 181.128ZM100.621 180.296C101.431 180.296 102.082 180.013 102.573 179.448C103.074 178.883 103.325 178.061 103.325 176.984C103.325 175.907 103.074 175.085 102.573 174.52C102.082 173.955 101.431 173.672 100.621 173.672C99.81 173.672 99.1593 173.955 98.6686 174.52C98.1886 175.085 97.9486 175.907 97.9486 176.984C97.9486 178.061 98.1886 178.883 98.6686 179.448C99.1593 180.013 99.81 180.296 100.621 180.296ZM106.922 181V172.984H107.898V181H106.922ZM106.762 171.016V169.8H108.074V171.016H106.762ZM113.794 181.128C113.037 181.128 112.376 180.963 111.81 180.632C111.245 180.291 110.808 179.805 110.498 179.176C110.2 178.547 110.05 177.8 110.05 176.936C110.05 176.072 110.205 175.336 110.514 174.728C110.824 174.109 111.256 173.64 111.81 173.32C112.376 173 113.037 172.84 113.794 172.84C114.306 172.84 114.797 172.936 115.266 173.128C115.746 173.32 116.141 173.587 116.45 173.928L116.05 174.648C115.72 174.317 115.362 174.077 114.978 173.928C114.594 173.768 114.21 173.688 113.826 173.688C112.952 173.688 112.269 173.965 111.778 174.52C111.288 175.075 111.042 175.885 111.042 176.952C111.042 178.019 111.288 178.845 111.778 179.432C112.269 180.008 112.952 180.296 113.826 180.296C114.189 180.296 114.562 180.221 114.946 180.072C115.341 179.923 115.709 179.677 116.05 179.336L116.45 180.056C116.13 180.397 115.725 180.664 115.234 180.856C114.754 181.037 114.274 181.128 113.794 181.128ZM118.422 181V172.984H119.398V181H118.422ZM118.262 171.016V169.8H119.574V171.016H118.262ZM122.062 181V174.776C122.062 174.488 122.052 174.195 122.03 173.896C122.009 173.597 121.977 173.293 121.934 172.984H122.894L123.038 174.824H122.846C123.081 174.184 123.46 173.693 123.982 173.352C124.505 173.011 125.113 172.84 125.806 172.84C126.756 172.84 127.47 173.091 127.95 173.592C128.441 174.093 128.686 174.877 128.686 175.944V181H127.71V176.024C127.71 175.203 127.545 174.611 127.214 174.248C126.884 173.875 126.372 173.688 125.678 173.688C124.868 173.688 124.222 173.933 123.742 174.424C123.273 174.915 123.038 175.576 123.038 176.408V181H122.062ZM134.752 181.128C133.536 181.128 132.571 180.765 131.856 180.04C131.152 179.315 130.8 178.307 130.8 177.016C130.8 176.163 130.955 175.427 131.264 174.808C131.584 174.189 132.027 173.709 132.592 173.368C133.158 173.016 133.814 172.84 134.56 172.84C135.275 172.84 135.878 172.995 136.368 173.304C136.859 173.603 137.238 174.035 137.504 174.6C137.771 175.155 137.904 175.816 137.904 176.584V177.032H131.504V176.328H137.296L137.024 176.536C137.024 175.629 136.816 174.92 136.4 174.408C135.984 173.885 135.366 173.624 134.544 173.624C133.67 173.624 132.987 173.928 132.496 174.536C132.006 175.133 131.76 175.928 131.76 176.92V177.032C131.76 178.099 132.022 178.909 132.544 179.464C133.078 180.019 133.819 180.296 134.768 180.296C135.259 180.296 135.718 180.221 136.144 180.072C136.571 179.923 136.982 179.667 137.376 179.304L137.776 180.024C137.435 180.376 136.992 180.648 136.448 180.84C135.904 181.032 135.339 181.128 134.752 181.128ZM142.592 181.128C141.973 181.128 141.392 181.037 140.848 180.856C140.315 180.675 139.872 180.424 139.52 180.104L139.904 179.384C140.299 179.704 140.725 179.944 141.184 180.104C141.643 180.253 142.123 180.328 142.624 180.328C143.307 180.328 143.824 180.2 144.176 179.944C144.528 179.688 144.704 179.341 144.704 178.904C144.704 178.563 144.592 178.285 144.368 178.072C144.144 177.859 143.771 177.699 143.248 177.592L141.808 177.288C141.125 177.128 140.613 176.872 140.272 176.52C139.941 176.168 139.776 175.725 139.776 175.192C139.776 174.733 139.893 174.328 140.128 173.976C140.373 173.624 140.72 173.347 141.168 173.144C141.616 172.941 142.144 172.84 142.752 172.84C143.328 172.84 143.856 172.936 144.336 173.128C144.827 173.309 145.227 173.571 145.536 173.912L145.12 174.616C144.8 174.296 144.437 174.056 144.032 173.896C143.637 173.736 143.216 173.656 142.768 173.656C142.107 173.656 141.605 173.795 141.264 174.072C140.923 174.339 140.752 174.696 140.752 175.144C140.752 175.485 140.859 175.768 141.072 175.992C141.285 176.205 141.621 176.365 142.08 176.472L143.52 176.792C144.245 176.952 144.784 177.197 145.136 177.528C145.488 177.859 145.664 178.296 145.664 178.84C145.664 179.309 145.536 179.72 145.28 180.072C145.024 180.413 144.667 180.675 144.208 180.856C143.749 181.037 143.211 181.128 142.592 181.128ZM154.112 181L151.216 172.984H152.272L154.848 180.424H154.416L157.088 172.984H158.08L160.704 180.424H160.288L162.896 172.984H163.904L160.992 181H159.984L157.296 173.464H157.856L155.136 181H154.112ZM165.797 181V172.984H166.773V181H165.797ZM165.637 171.016V169.8H166.949V171.016H165.637ZM172.029 181.128C171.315 181.128 170.765 180.915 170.381 180.488C170.008 180.061 169.821 179.405 169.821 178.52V173.768H168.221V172.984H169.821V170.744L170.797 170.424V172.984H173.165V173.768H170.797V178.376C170.797 179.048 170.904 179.533 171.117 179.832C171.331 180.131 171.672 180.28 172.141 180.28C172.355 180.28 172.541 180.259 172.701 180.216C172.872 180.173 173.016 180.125 173.133 180.072V180.936C173.005 180.989 172.84 181.032 172.637 181.064C172.435 181.107 172.232 181.128 172.029 181.128ZM174.828 181V169.224H175.804V174.84H175.612C175.836 174.189 176.215 173.693 176.748 173.352C177.281 173.011 177.9 172.84 178.604 172.84C179.575 172.84 180.289 173.096 180.748 173.608C181.217 174.12 181.452 174.888 181.452 175.912V181H180.476V175.992C180.476 175.181 180.316 174.595 179.996 174.232C179.676 173.869 179.164 173.688 178.46 173.688C177.66 173.688 177.015 173.933 176.524 174.424C176.044 174.915 175.804 175.565 175.804 176.376V181H174.828ZM191.324 181.128C190.567 181.128 189.911 180.963 189.356 180.632C188.812 180.301 188.391 179.827 188.092 179.208C187.793 178.589 187.644 177.848 187.644 176.984C187.644 176.131 187.793 175.395 188.092 174.776C188.391 174.157 188.812 173.683 189.356 173.352C189.911 173.011 190.567 172.84 191.324 172.84C192.071 172.84 192.716 173.011 193.26 173.352C193.815 173.683 194.241 174.157 194.54 174.776C194.849 175.395 195.004 176.131 195.004 176.984C195.004 177.848 194.849 178.589 194.54 179.208C194.241 179.827 193.815 180.301 193.26 180.632C192.716 180.963 192.071 181.128 191.324 181.128ZM191.324 180.296C192.135 180.296 192.785 180.013 193.276 179.448C193.767 178.883 194.012 178.061 194.012 176.984C194.012 175.907 193.767 175.085 193.276 174.52C192.785 173.955 192.135 173.672 191.324 173.672C190.503 173.672 189.847 173.955 189.356 174.52C188.876 175.085 188.636 175.907 188.636 176.984C188.636 178.061 188.876 178.883 189.356 179.448C189.847 180.013 190.503 180.296 191.324 180.296ZM199.957 181.128C199.018 181.128 198.303 180.877 197.812 180.376C197.333 179.864 197.093 179.08 197.093 178.024V172.984H198.069V177.96C198.069 178.771 198.234 179.363 198.565 179.736C198.895 180.109 199.402 180.296 200.085 180.296C200.842 180.296 201.45 180.051 201.909 179.56C202.378 179.059 202.613 178.397 202.613 177.576V172.984H203.589V181H202.629V179.112H202.837C202.613 179.763 202.245 180.264 201.733 180.616C201.231 180.957 200.639 181.128 199.957 181.128ZM206.234 181V174.856C206.234 174.547 206.223 174.237 206.202 173.928C206.191 173.608 206.165 173.293 206.122 172.984H207.082L207.21 174.824L207.018 174.84C207.125 174.392 207.317 174.024 207.594 173.736C207.871 173.437 208.191 173.213 208.554 173.064C208.917 172.915 209.29 172.84 209.674 172.84C209.813 172.84 209.941 172.851 210.058 172.872C210.186 172.883 210.303 172.904 210.41 172.936L210.378 173.816C210.25 173.773 210.122 173.747 209.994 173.736C209.866 173.725 209.727 173.72 209.578 173.72C209.098 173.72 208.677 173.837 208.314 174.072C207.962 174.307 207.69 174.605 207.498 174.968C207.306 175.331 207.21 175.699 207.21 176.072V181H206.234ZM2.328 209V202.776C2.328 202.488 2.31733 202.195 2.296 201.896C2.27467 201.597 2.24267 201.293 2.2 200.984H3.16L3.304 202.824H3.112C3.31467 202.195 3.65067 201.709 4.12 201.368C4.58933 201.016 5.16 200.84 5.832 200.84C6.51467 200.84 7.06933 201.005 7.496 201.336C7.92267 201.667 8.20533 202.179 8.344 202.872H8.104C8.296 202.253 8.648 201.763 9.16 201.4C9.672 201.027 10.2747 200.84 10.968 200.84C11.8427 200.84 12.504 201.091 12.952 201.592C13.4 202.093 13.624 202.877 13.624 203.944V209H12.648V204.008C12.648 203.197 12.504 202.611 12.216 202.248C11.928 201.875 11.4587 201.688 10.808 201.688C10.0827 201.688 9.50667 201.933 9.08 202.424C8.664 202.915 8.456 203.576 8.456 204.408V209H7.48V204.008C7.48 203.197 7.336 202.611 7.048 202.248C6.76 201.875 6.296 201.688 5.656 201.688C4.93067 201.688 4.35467 201.933 3.928 202.424C3.512 202.915 3.304 203.576 3.304 204.408V209H2.328ZM19.4023 209.128C18.6449 209.128 17.9889 208.963 17.4343 208.632C16.8903 208.301 16.4689 207.827 16.1703 207.208C15.8716 206.589 15.7223 205.848 15.7223 204.984C15.7223 204.131 15.8716 203.395 16.1703 202.776C16.4689 202.157 16.8903 201.683 17.4343 201.352C17.9889 201.011 18.6449 200.84 19.4023 200.84C20.1489 200.84 20.7943 201.011 21.3383 201.352C21.8929 201.683 22.3196 202.157 22.6183 202.776C22.9276 203.395 23.0823 204.131 23.0823 204.984C23.0823 205.848 22.9276 206.589 22.6183 207.208C22.3196 207.827 21.8929 208.301 21.3383 208.632C20.7943 208.963 20.1489 209.128 19.4023 209.128ZM19.4023 208.296C20.2129 208.296 20.8636 208.013 21.3543 207.448C21.8449 206.883 22.0903 206.061 22.0903 204.984C22.0903 203.907 21.8449 203.085 21.3543 202.52C20.8636 201.955 20.2129 201.672 19.4023 201.672C18.5809 201.672 17.9249 201.955 17.4343 202.52C16.9543 203.085 16.7143 203.907 16.7143 204.984C16.7143 206.061 16.9543 206.883 17.4343 207.448C17.9249 208.013 18.5809 208.296 19.4023 208.296ZM28.9946 209.128C28.248 209.128 27.608 208.941 27.0746 208.568C26.552 208.184 26.2 207.656 26.0186 206.984H26.1946V209H25.2186V197.224H26.1946V202.968H26.0186C26.2 202.307 26.552 201.789 27.0746 201.416C27.608 201.032 28.248 200.84 28.9946 200.84C29.72 200.84 30.344 201.011 30.8666 201.352C31.4 201.683 31.8106 202.157 32.0986 202.776C32.3973 203.384 32.5466 204.125 32.5466 205C32.5466 205.853 32.3973 206.589 32.0986 207.208C31.8 207.827 31.384 208.301 30.8506 208.632C30.328 208.963 29.7093 209.128 28.9946 209.128ZM28.8506 208.296C29.672 208.296 30.328 208.019 30.8186 207.464C31.3093 206.899 31.5546 206.077 31.5546 205C31.5546 203.923 31.3093 203.101 30.8186 202.536C30.328 201.96 29.672 201.672 28.8506 201.672C28.04 201.672 27.3893 201.955 26.8986 202.52C26.4186 203.085 26.1786 203.907 26.1786 204.984C26.1786 206.061 26.4186 206.883 26.8986 207.448C27.3893 208.013 28.04 208.296 28.8506 208.296ZM34.6718 209V200.984H35.6478V209H34.6718ZM34.5118 199.016V197.8H35.8238V199.016H34.5118ZM38.3124 209V197.224H39.2884V209H38.3124ZM45.393 209.128C44.177 209.128 43.2117 208.765 42.497 208.04C41.793 207.315 41.441 206.307 41.441 205.016C41.441 204.163 41.5957 203.427 41.905 202.808C42.225 202.189 42.6677 201.709 43.233 201.368C43.7983 201.016 44.4543 200.84 45.201 200.84C45.9157 200.84 46.5183 200.995 47.009 201.304C47.4997 201.603 47.8783 202.035 48.145 202.6C48.4117 203.155 48.545 203.816 48.545 204.584V205.032H42.145V204.328H47.937L47.665 204.536C47.665 203.629 47.457 202.92 47.041 202.408C46.625 201.885 46.0063 201.624 45.185 201.624C44.3103 201.624 43.6277 201.928 43.137 202.536C42.6463 203.133 42.401 203.928 42.401 204.92V205.032C42.401 206.099 42.6623 206.909 43.185 207.464C43.7183 208.019 44.4597 208.296 45.409 208.296C45.8997 208.296 46.3583 208.221 46.785 208.072C47.2117 207.923 47.6223 207.667 48.017 207.304L48.417 208.024C48.0757 208.376 47.633 208.648 47.089 208.84C46.545 209.032 45.9797 209.128 45.393 209.128ZM57.7586 209.128C57.0333 209.128 56.404 208.963 55.8706 208.632C55.3373 208.301 54.9266 207.827 54.6386 207.208C54.3506 206.589 54.2066 205.848 54.2066 204.984C54.2066 204.12 54.3506 203.384 54.6386 202.776C54.9373 202.157 55.3533 201.683 55.8866 201.352C56.42 201.011 57.044 200.84 57.7586 200.84C58.4946 200.84 59.1293 201.032 59.6626 201.416C60.2066 201.8 60.564 202.323 60.7346 202.984H60.5426L60.7026 200.984H61.6466C61.6146 201.293 61.5826 201.597 61.5506 201.896C61.5293 202.195 61.5186 202.488 61.5186 202.776V209H60.5426V207H60.7186C60.548 207.661 60.1906 208.184 59.6466 208.568C59.1133 208.941 58.484 209.128 57.7586 209.128ZM57.8866 208.296C58.708 208.296 59.3586 208.013 59.8386 207.448C60.3186 206.883 60.5586 206.061 60.5586 204.984C60.5586 203.907 60.3186 203.085 59.8386 202.52C59.3586 201.955 58.708 201.672 57.8866 201.672C57.0653 201.672 56.4093 201.955 55.9186 202.52C55.4386 203.085 55.1986 203.907 55.1986 204.984C55.1986 206.061 55.4386 206.883 55.9186 207.448C56.4093 208.013 57.0653 208.296 57.8866 208.296ZM64.1718 212.456V202.776C64.1718 202.488 64.1611 202.195 64.1398 201.896C64.1184 201.597 64.0864 201.293 64.0438 200.984H65.0038L65.1638 202.984H64.9718C65.1531 202.323 65.5051 201.8 66.0278 201.416C66.5504 201.032 67.1851 200.84 67.9318 200.84C68.6571 200.84 69.2811 201.011 69.8038 201.352C70.3371 201.683 70.7531 202.157 71.0518 202.776C71.3504 203.384 71.4998 204.12 71.4998 204.984C71.4998 205.848 71.3504 206.589 71.0518 207.208C70.7638 207.827 70.3531 208.301 69.8198 208.632C69.2864 208.963 68.6571 209.128 67.9318 209.128C67.1958 209.128 66.5611 208.941 66.0278 208.568C65.5051 208.184 65.1531 207.661 64.9718 207H65.1478V212.456H64.1718ZM67.8038 208.296C68.6251 208.296 69.2811 208.013 69.7718 207.448C70.2624 206.883 70.5078 206.061 70.5078 204.984C70.5078 203.907 70.2624 203.085 69.7718 202.52C69.2811 201.955 68.6251 201.672 67.8038 201.672C66.9931 201.672 66.3424 201.955 65.8518 202.52C65.3718 203.085 65.1318 203.907 65.1318 204.984C65.1318 206.061 65.3718 206.883 65.8518 207.448C66.3424 208.013 66.9931 208.296 67.8038 208.296ZM73.6249 212.456V202.776C73.6249 202.488 73.6142 202.195 73.5929 201.896C73.5715 201.597 73.5395 201.293 73.4969 200.984H74.4569L74.6169 202.984H74.4249C74.6062 202.323 74.9582 201.8 75.4809 201.416C76.0035 201.032 76.6382 200.84 77.3849 200.84C78.1102 200.84 78.7342 201.011 79.2569 201.352C79.7902 201.683 80.2062 202.157 80.5049 202.776C80.8035 203.384 80.9529 204.12 80.9529 204.984C80.9529 205.848 80.8035 206.589 80.5049 207.208C80.2169 207.827 79.8062 208.301 79.2729 208.632C78.7395 208.963 78.1102 209.128 77.3849 209.128C76.6489 209.128 76.0142 208.941 75.4809 208.568C74.9582 208.184 74.6062 207.661 74.4249 207H74.6009V212.456H73.6249ZM77.2569 208.296C78.0782 208.296 78.7342 208.013 79.2249 207.448C79.7155 206.883 79.9609 206.061 79.9609 204.984C79.9609 203.907 79.7155 203.085 79.2249 202.52C78.7342 201.955 78.0782 201.672 77.2569 201.672C76.4462 201.672 75.7955 201.955 75.3049 202.52C74.8249 203.085 74.5849 203.907 74.5849 204.984C74.5849 206.061 74.8249 206.883 75.3049 207.448C75.7955 208.013 76.4462 208.296 77.2569 208.296ZM83.078 209V197.224H84.054V209H83.078ZM86.7186 209V200.984H87.6946V209H86.7186ZM86.5586 199.016V197.8H87.8706V199.016H86.5586ZM93.5913 209.128C92.8339 209.128 92.1726 208.963 91.6073 208.632C91.0419 208.291 90.6046 207.805 90.2953 207.176C89.9966 206.547 89.8473 205.8 89.8473 204.936C89.8473 204.072 90.0019 203.336 90.3113 202.728C90.6206 202.109 91.0526 201.64 91.6073 201.32C92.1726 201 92.8339 200.84 93.5913 200.84C94.1033 200.84 94.5939 200.936 95.0633 201.128C95.5433 201.32 95.9379 201.587 96.2473 201.928L95.8473 202.648C95.5166 202.317 95.1593 202.077 94.7753 201.928C94.3913 201.768 94.0073 201.688 93.6233 201.688C92.7486 201.688 92.0659 201.965 91.5753 202.52C91.0846 203.075 90.8393 203.885 90.8393 204.952C90.8393 206.019 91.0846 206.845 91.5753 207.432C92.0659 208.008 92.7486 208.296 93.6233 208.296C93.9859 208.296 94.3593 208.221 94.7433 208.072C95.1379 207.923 95.5059 207.677 95.8473 207.336L96.2473 208.056C95.9273 208.397 95.5219 208.664 95.0313 208.856C94.5513 209.037 94.0713 209.128 93.5913 209.128ZM101.181 209.128C100.455 209.128 99.8258 208.963 99.2925 208.632C98.7592 208.301 98.3485 207.827 98.0605 207.208C97.7725 206.589 97.6285 205.848 97.6285 204.984C97.6285 204.12 97.7725 203.384 98.0605 202.776C98.3592 202.157 98.7752 201.683 99.3085 201.352C99.8418 201.011 100.466 200.84 101.181 200.84C101.917 200.84 102.551 201.032 103.085 201.416C103.629 201.8 103.986 202.323 104.157 202.984H103.965L104.125 200.984H105.069C105.037 201.293 105.005 201.597 104.973 201.896C104.951 202.195 104.941 202.488 104.941 202.776V209H103.965V207H104.141C103.97 207.661 103.613 208.184 103.069 208.568C102.535 208.941 101.906 209.128 101.181 209.128ZM101.309 208.296C102.13 208.296 102.781 208.013 103.261 207.448C103.741 206.883 103.981 206.061 103.981 204.984C103.981 203.907 103.741 203.085 103.261 202.52C102.781 201.955 102.13 201.672 101.309 201.672C100.487 201.672 99.8312 201.955 99.3405 202.52C98.8605 203.085 98.6205 203.907 98.6205 204.984C98.6205 206.061 98.8605 206.883 99.3405 207.448C99.8312 208.013 100.487 208.296 101.309 208.296ZM110.186 209.128C109.471 209.128 108.922 208.915 108.538 208.488C108.164 208.061 107.978 207.405 107.978 206.52V201.768H106.378V200.984H107.978V198.744L108.954 198.424V200.984H111.322V201.768H108.954V206.376C108.954 207.048 109.06 207.533 109.274 207.832C109.487 208.131 109.828 208.28 110.298 208.28C110.511 208.28 110.698 208.259 110.858 208.216C111.028 208.173 111.172 208.125 111.29 208.072V208.936C111.162 208.989 110.996 209.032 110.794 209.064C110.591 209.107 110.388 209.128 110.186 209.128ZM112.984 209V200.984H113.96V209H112.984ZM112.824 199.016V197.8H114.136V199.016H112.824ZM119.793 209.128C119.036 209.128 118.38 208.963 117.825 208.632C117.281 208.301 116.86 207.827 116.561 207.208C116.262 206.589 116.113 205.848 116.113 204.984C116.113 204.131 116.262 203.395 116.561 202.776C116.86 202.157 117.281 201.683 117.825 201.352C118.38 201.011 119.036 200.84 119.793 200.84C120.54 200.84 121.185 201.011 121.729 201.352C122.284 201.683 122.71 202.157 123.009 202.776C123.318 203.395 123.473 204.131 123.473 204.984C123.473 205.848 123.318 206.589 123.009 207.208C122.71 207.827 122.284 208.301 121.729 208.632C121.185 208.963 120.54 209.128 119.793 209.128ZM119.793 208.296C120.604 208.296 121.254 208.013 121.745 207.448C122.236 206.883 122.481 206.061 122.481 204.984C122.481 203.907 122.236 203.085 121.745 202.52C121.254 201.955 120.604 201.672 119.793 201.672C118.972 201.672 118.316 201.955 117.825 202.52C117.345 203.085 117.105 203.907 117.105 204.984C117.105 206.061 117.345 206.883 117.825 207.448C118.316 208.013 118.972 208.296 119.793 208.296ZM125.609 209V202.776C125.609 202.488 125.599 202.195 125.577 201.896C125.556 201.597 125.524 201.293 125.481 200.984H126.441L126.585 202.824H126.393C126.628 202.184 127.007 201.693 127.529 201.352C128.052 201.011 128.66 200.84 129.353 200.84C130.303 200.84 131.017 201.091 131.497 201.592C131.988 202.093 132.233 202.877 132.233 203.944V209H131.257V204.024C131.257 203.203 131.092 202.611 130.761 202.248C130.431 201.875 129.919 201.688 129.225 201.688C128.415 201.688 127.769 201.933 127.289 202.424C126.82 202.915 126.585 203.576 126.585 204.408V209H125.609ZM141.065 209L138.169 200.984H139.225L141.801 208.424H141.369L144.041 200.984H145.033L147.657 208.424H147.241L149.849 200.984H150.857L147.945 209H146.937L144.249 201.464H144.809L142.089 209H141.065ZM152.75 209V200.984H153.726V209H152.75ZM152.59 199.016V197.8H153.902V199.016H152.59ZM158.983 209.128C158.268 209.128 157.719 208.915 157.335 208.488C156.961 208.061 156.775 207.405 156.775 206.52V201.768H155.175V200.984H156.775V198.744L157.751 198.424V200.984H160.119V201.768H157.751V206.376C157.751 207.048 157.857 207.533 158.071 207.832C158.284 208.131 158.625 208.28 159.095 208.28C159.308 208.28 159.495 208.259 159.655 208.216C159.825 208.173 159.969 208.125 160.087 208.072V208.936C159.959 208.989 159.793 209.032 159.591 209.064C159.388 209.107 159.185 209.128 158.983 209.128ZM161.781 209V197.224H162.757V202.84H162.565C162.789 202.189 163.168 201.693 163.701 201.352C164.234 201.011 164.853 200.84 165.557 200.84C166.528 200.84 167.242 201.096 167.701 201.608C168.17 202.12 168.405 202.888 168.405 203.912V209H167.429V203.992C167.429 203.181 167.269 202.595 166.949 202.232C166.629 201.869 166.117 201.688 165.413 201.688C164.613 201.688 163.968 201.933 163.477 202.424C162.997 202.915 162.757 203.565 162.757 204.376V209H161.781ZM178.149 209.128C177.424 209.128 176.795 208.963 176.261 208.632C175.728 208.301 175.317 207.827 175.029 207.208C174.741 206.589 174.597 205.848 174.597 204.984C174.597 204.12 174.741 203.384 175.029 202.776C175.328 202.157 175.744 201.683 176.277 201.352C176.811 201.011 177.435 200.84 178.149 200.84C178.885 200.84 179.52 201.032 180.053 201.416C180.597 201.8 180.955 202.323 181.125 202.984H180.933L181.093 200.984H182.037C182.005 201.293 181.973 201.597 181.941 201.896C181.92 202.195 181.909 202.488 181.909 202.776V209H180.933V207H181.109C180.939 207.661 180.581 208.184 180.037 208.568C179.504 208.941 178.875 209.128 178.149 209.128ZM178.277 208.296C179.099 208.296 179.749 208.013 180.229 207.448C180.709 206.883 180.949 206.061 180.949 204.984C180.949 203.907 180.709 203.085 180.229 202.52C179.749 201.955 179.099 201.672 178.277 201.672C177.456 201.672 176.8 201.955 176.309 202.52C175.829 203.085 175.589 203.907 175.589 204.984C175.589 206.061 175.829 206.883 176.309 207.448C176.8 208.013 177.456 208.296 178.277 208.296ZM191.233 209.128C190.614 209.128 190.033 209.037 189.489 208.856C188.955 208.675 188.513 208.424 188.161 208.104L188.545 207.384C188.939 207.704 189.366 207.944 189.825 208.104C190.283 208.253 190.763 208.328 191.265 208.328C191.947 208.328 192.465 208.2 192.817 207.944C193.169 207.688 193.345 207.341 193.345 206.904C193.345 206.563 193.233 206.285 193.009 206.072C192.785 205.859 192.411 205.699 191.889 205.592L190.449 205.288C189.766 205.128 189.254 204.872 188.913 204.52C188.582 204.168 188.417 203.725 188.417 203.192C188.417 202.733 188.534 202.328 188.769 201.976C189.014 201.624 189.361 201.347 189.809 201.144C190.257 200.941 190.785 200.84 191.393 200.84C191.969 200.84 192.497 200.936 192.977 201.128C193.467 201.309 193.867 201.571 194.177 201.912L193.761 202.616C193.441 202.296 193.078 202.056 192.673 201.896C192.278 201.736 191.857 201.656 191.409 201.656C190.747 201.656 190.246 201.795 189.905 202.072C189.563 202.339 189.393 202.696 189.393 203.144C189.393 203.485 189.499 203.768 189.713 203.992C189.926 204.205 190.262 204.365 190.721 204.472L192.161 204.792C192.886 204.952 193.425 205.197 193.777 205.528C194.129 205.859 194.305 206.296 194.305 206.84C194.305 207.309 194.177 207.72 193.921 208.072C193.665 208.413 193.307 208.675 192.849 208.856C192.39 209.037 191.851 209.128 191.233 209.128ZM196.547 209V200.984H197.523V209H196.547ZM196.387 199.016V197.8H197.699V199.016H196.387ZM200.187 209V202.776C200.187 202.488 200.177 202.195 200.155 201.896C200.134 201.597 200.102 201.293 200.059 200.984H201.019L201.163 202.824H200.971C201.174 202.195 201.51 201.709 201.979 201.368C202.449 201.016 203.019 200.84 203.691 200.84C204.374 200.84 204.929 201.005 205.355 201.336C205.782 201.667 206.065 202.179 206.203 202.872H205.963C206.155 202.253 206.507 201.763 207.019 201.4C207.531 201.027 208.134 200.84 208.827 200.84C209.702 200.84 210.363 201.091 210.811 201.592C211.259 202.093 211.483 202.877 211.483 203.944V209H210.507V204.008C210.507 203.197 210.363 202.611 210.075 202.248C209.787 201.875 209.318 201.688 208.667 201.688C207.942 201.688 207.366 201.933 206.939 202.424C206.523 202.915 206.315 203.576 206.315 204.408V209H205.339V204.008C205.339 203.197 205.195 202.611 204.907 202.248C204.619 201.875 204.155 201.688 203.515 201.688C202.79 201.688 202.214 201.933 201.787 202.424C201.371 202.915 201.163 203.576 201.163 204.408V209H200.187ZM214.094 212.456V202.776C214.094 202.488 214.083 202.195 214.062 201.896C214.04 201.597 214.008 201.293 213.966 200.984H214.926L215.086 202.984H214.894C215.075 202.323 215.427 201.8 215.95 201.416C216.472 201.032 217.107 200.84 217.854 200.84C218.579 200.84 219.203 201.011 219.726 201.352C220.259 201.683 220.675 202.157 220.974 202.776C221.272 203.384 221.422 204.12 221.422 204.984C221.422 205.848 221.272 206.589 220.974 207.208C220.686 207.827 220.275 208.301 219.742 208.632C219.208 208.963 218.579 209.128 217.854 209.128C217.118 209.128 216.483 208.941 215.95 208.568C215.427 208.184 215.075 207.661 214.894 207H215.07V212.456H214.094ZM217.726 208.296C218.547 208.296 219.203 208.013 219.694 207.448C220.184 206.883 220.43 206.061 220.43 204.984C220.43 203.907 220.184 203.085 219.694 202.52C219.203 201.955 218.547 201.672 217.726 201.672C216.915 201.672 216.264 201.955 215.774 202.52C215.294 203.085 215.054 203.907 215.054 204.984C215.054 206.061 215.294 206.883 215.774 207.448C216.264 208.013 216.915 208.296 217.726 208.296ZM223.547 209V197.224H224.523V209H223.547ZM230.627 209.128C229.411 209.128 228.446 208.765 227.731 208.04C227.027 207.315 226.675 206.307 226.675 205.016C226.675 204.163 226.83 203.427 227.139 202.808C227.459 202.189 227.902 201.709 228.467 201.368C229.033 201.016 229.689 200.84 230.435 200.84C231.15 200.84 231.753 200.995 232.243 201.304C232.734 201.603 233.113 202.035 233.379 202.6C233.646 203.155 233.779 203.816 233.779 204.584V205.032H227.379V204.328H233.171L232.899 204.536C232.899 203.629 232.691 202.92 232.275 202.408C231.859 201.885 231.241 201.624 230.419 201.624C229.545 201.624 228.862 201.928 228.371 202.536C227.881 203.133 227.635 203.928 227.635 204.92V205.032C227.635 206.099 227.897 206.909 228.419 207.464C228.953 208.019 229.694 208.296 230.643 208.296C231.134 208.296 231.593 208.221 232.019 208.072C232.446 207.923 232.857 207.667 233.251 207.304L233.651 208.024C233.31 208.376 232.867 208.648 232.323 208.84C231.779 209.032 231.214 209.128 230.627 209.128ZM5.352 237.128C4.63733 237.128 4.01333 236.963 3.48 236.632C2.94667 236.301 2.536 235.827 2.248 235.208C1.96 234.589 1.816 233.848 1.816 232.984C1.816 232.12 1.96 231.384 2.248 230.776C2.536 230.157 2.94667 229.683 3.48 229.352C4.01333 229.011 4.63733 228.84 5.352 228.84C6.088 228.84 6.72267 229.032 7.256 229.416C7.8 229.789 8.16267 230.307 8.344 230.968H8.152V225.224H9.128V237H8.168V234.984H8.344C8.16267 235.656 7.8 236.184 7.256 236.568C6.72267 236.941 6.088 237.128 5.352 237.128ZM5.48 236.296C6.29067 236.296 6.94133 236.013 7.432 235.448C7.93333 234.883 8.184 234.061 8.184 232.984C8.184 231.907 7.93333 231.085 7.432 230.52C6.94133 229.955 6.29067 229.672 5.48 229.672C4.66933 229.672 4.01867 229.955 3.528 230.52C3.048 231.085 2.808 231.907 2.808 232.984C2.808 234.061 3.048 234.883 3.528 235.448C4.01867 236.013 4.66933 236.296 5.48 236.296ZM15.2211 237.128C14.0051 237.128 13.0398 236.765 12.3251 236.04C11.6211 235.315 11.2691 234.307 11.2691 233.016C11.2691 232.163 11.4238 231.427 11.7331 230.808C12.0531 230.189 12.4958 229.709 13.0611 229.368C13.6265 229.016 14.2825 228.84 15.0291 228.84C15.7438 228.84 16.3465 228.995 16.8371 229.304C17.3278 229.603 17.7065 230.035 17.9731 230.6C18.2398 231.155 18.3731 231.816 18.3731 232.584V233.032H11.9731V232.328H17.7651L17.4931 232.536C17.4931 231.629 17.2851 230.92 16.8691 230.408C16.4531 229.885 15.8345 229.624 15.0131 229.624C14.1385 229.624 13.4558 229.928 12.9651 230.536C12.4745 231.133 12.2291 231.928 12.2291 232.92V233.032C12.2291 234.099 12.4905 234.909 13.0131 235.464C13.5465 236.019 14.2878 236.296 15.2371 236.296C15.7278 236.296 16.1865 236.221 16.6131 236.072C17.0398 235.923 17.4505 235.667 17.8451 235.304L18.2451 236.024C17.9038 236.376 17.4611 236.648 16.9171 236.84C16.3731 237.032 15.8078 237.128 15.2211 237.128ZM20.4686 237V225.224H21.4446V237H20.4686ZM24.1093 237V228.984H25.0853V237H24.1093ZM23.9493 227.016V225.8H25.2613V227.016H23.9493ZM30.1179 237L26.7099 228.984H27.7979L30.8379 236.392H30.4219L33.4939 228.984H34.5339L31.1259 237H30.1179ZM39.5024 237.128C38.2864 237.128 37.321 236.765 36.6064 236.04C35.9024 235.315 35.5504 234.307 35.5504 233.016C35.5504 232.163 35.705 231.427 36.0144 230.808C36.3344 230.189 36.777 229.709 37.3424 229.368C37.9077 229.016 38.5637 228.84 39.3104 228.84C40.025 228.84 40.6277 228.995 41.1184 229.304C41.609 229.603 41.9877 230.035 42.2544 230.6C42.521 231.155 42.6544 231.816 42.6544 232.584V233.032H36.2544V232.328H42.0464L41.7744 232.536C41.7744 231.629 41.5664 230.92 41.1504 230.408C40.7344 229.885 40.1157 229.624 39.2944 229.624C38.4197 229.624 37.737 229.928 37.2464 230.536C36.7557 231.133 36.5104 231.928 36.5104 232.92V233.032C36.5104 234.099 36.7717 234.909 37.2944 235.464C37.8277 236.019 38.569 236.296 39.5184 236.296C40.009 236.296 40.4677 236.221 40.8944 236.072C41.321 235.923 41.7317 235.667 42.1264 235.304L42.5264 236.024C42.185 236.376 41.7424 236.648 41.1984 236.84C40.6544 237.032 40.089 237.128 39.5024 237.128ZM44.7339 237V230.856C44.7339 230.547 44.7232 230.237 44.7019 229.928C44.6912 229.608 44.6645 229.293 44.6219 228.984H45.5819L45.7099 230.824L45.5179 230.84C45.6245 230.392 45.8165 230.024 46.0939 229.736C46.3712 229.437 46.6912 229.213 47.0539 229.064C47.4165 228.915 47.7899 228.84 48.1739 228.84C48.3125 228.84 48.4405 228.851 48.5579 228.872C48.6859 228.883 48.8032 228.904 48.9099 228.936L48.8779 229.816C48.7499 229.773 48.6219 229.747 48.4939 229.736C48.3659 229.725 48.2272 229.72 48.0779 229.72C47.5979 229.72 47.1765 229.837 46.8139 230.072C46.4619 230.307 46.1899 230.605 45.9979 230.968C45.8059 231.331 45.7099 231.699 45.7099 232.072V237H44.7339ZM50.4444 240.632L50.2044 239.784C50.7057 239.667 51.1217 239.523 51.4524 239.352C51.783 239.192 52.0604 238.979 52.2844 238.712C52.5084 238.445 52.7057 238.115 52.8764 237.72L53.2924 236.76L53.2764 237.192L49.7724 228.984H50.8604L53.9164 236.392H53.5164L56.5404 228.984H57.5964L53.8844 237.768C53.6817 238.259 53.4577 238.664 53.2124 238.984C52.9777 239.315 52.7217 239.587 52.4444 239.8C52.167 240.024 51.863 240.2 51.5324 240.328C51.2017 240.456 50.839 240.557 50.4444 240.632ZM65.8888 237.128C65.2701 237.128 64.6888 237.037 64.1448 236.856C63.6114 236.675 63.1688 236.424 62.8168 236.104L63.2008 235.384C63.5954 235.704 64.0221 235.944 64.4808 236.104C64.9394 236.253 65.4194 236.328 65.9208 236.328C66.6034 236.328 67.1208 236.2 67.4728 235.944C67.8248 235.688 68.0008 235.341 68.0008 234.904C68.0008 234.563 67.8888 234.285 67.6648 234.072C67.4408 233.859 67.0674 233.699 66.5448 233.592L65.1048 233.288C64.4221 233.128 63.9101 232.872 63.5688 232.52C63.2381 232.168 63.0728 231.725 63.0728 231.192C63.0728 230.733 63.1901 230.328 63.4248 229.976C63.6701 229.624 64.0168 229.347 64.4648 229.144C64.9128 228.941 65.4408 228.84 66.0488 228.84C66.6248 228.84 67.1528 228.936 67.6328 229.128C68.1234 229.309 68.5234 229.571 68.8328 229.912L68.4168 230.616C68.0968 230.296 67.7341 230.056 67.3288 229.896C66.9341 229.736 66.5128 229.656 66.0648 229.656C65.4034 229.656 64.9021 229.795 64.5608 230.072C64.2194 230.339 64.0488 230.696 64.0488 231.144C64.0488 231.485 64.1554 231.768 64.3688 231.992C64.5821 232.205 64.9181 232.365 65.3768 232.472L66.8168 232.792C67.5421 232.952 68.0808 233.197 68.4328 233.528C68.7848 233.859 68.9608 234.296 68.9608 234.84C68.9608 235.309 68.8328 235.72 68.5768 236.072C68.3208 236.413 67.9634 236.675 67.5048 236.856C67.0461 237.037 66.5074 237.128 65.8888 237.128ZM70.6788 240.632L70.4388 239.784C70.9401 239.667 71.3561 239.523 71.6868 239.352C72.0174 239.192 72.2948 238.979 72.5188 238.712C72.7428 238.445 72.9401 238.115 73.1108 237.72L73.5268 236.76L73.5108 237.192L70.0068 228.984H71.0948L74.1508 236.392H73.7508L76.7748 228.984H77.8308L74.1188 237.768C73.9161 238.259 73.6921 238.664 73.4468 238.984C73.2121 239.315 72.9561 239.587 72.6788 239.8C72.4014 240.024 72.0974 240.2 71.7668 240.328C71.4361 240.456 71.0734 240.557 70.6788 240.632ZM81.8888 237.128C81.2701 237.128 80.6888 237.037 80.1448 236.856C79.6114 236.675 79.1688 236.424 78.8168 236.104L79.2008 235.384C79.5954 235.704 80.0221 235.944 80.4808 236.104C80.9394 236.253 81.4194 236.328 81.9208 236.328C82.6034 236.328 83.1208 236.2 83.4728 235.944C83.8248 235.688 84.0008 235.341 84.0008 234.904C84.0008 234.563 83.8888 234.285 83.6648 234.072C83.4408 233.859 83.0674 233.699 82.5448 233.592L81.1048 233.288C80.4221 233.128 79.9101 232.872 79.5688 232.52C79.2381 232.168 79.0728 231.725 79.0728 231.192C79.0728 230.733 79.1901 230.328 79.4248 229.976C79.6701 229.624 80.0168 229.347 80.4648 229.144C80.9128 228.941 81.4408 228.84 82.0488 228.84C82.6248 228.84 83.1528 228.936 83.6328 229.128C84.1234 229.309 84.5234 229.571 84.8328 229.912L84.4168 230.616C84.0968 230.296 83.7341 230.056 83.3288 229.896C82.9341 229.736 82.5128 229.656 82.0648 229.656C81.4034 229.656 80.9021 229.795 80.5608 230.072C80.2194 230.339 80.0488 230.696 80.0488 231.144C80.0488 231.485 80.1554 231.768 80.3688 231.992C80.5821 232.205 80.9181 232.365 81.3768 232.472L82.8168 232.792C83.5421 232.952 84.0808 233.197 84.4328 233.528C84.7848 233.859 84.9608 234.296 84.9608 234.84C84.9608 235.309 84.8328 235.72 84.5768 236.072C84.3208 236.413 83.9634 236.675 83.5048 236.856C83.0461 237.037 82.5074 237.128 81.8888 237.128ZM89.7169 237.128C89.0022 237.128 88.4529 236.915 88.0689 236.488C87.6955 236.061 87.5089 235.405 87.5089 234.52V229.768H85.9089V228.984H87.5089V226.744L88.4849 226.424V228.984H90.8529V229.768H88.4849V234.376C88.4849 235.048 88.5915 235.533 88.8049 235.832C89.0182 236.131 89.3595 236.28 89.8289 236.28C90.0422 236.28 90.2289 236.259 90.3889 236.216C90.5595 236.173 90.7035 236.125 90.8209 236.072V236.936C90.6929 236.989 90.5275 237.032 90.3249 237.064C90.1222 237.107 89.9195 237.128 89.7169 237.128ZM95.8774 237.128C94.6614 237.128 93.696 236.765 92.9814 236.04C92.2774 235.315 91.9254 234.307 91.9254 233.016C91.9254 232.163 92.08 231.427 92.3894 230.808C92.7094 230.189 93.152 229.709 93.7174 229.368C94.2827 229.016 94.9387 228.84 95.6854 228.84C96.4 228.84 97.0027 228.995 97.4934 229.304C97.984 229.603 98.3627 230.035 98.6294 230.6C98.896 231.155 99.0294 231.816 99.0294 232.584V233.032H92.6294V232.328H98.4214L98.1494 232.536C98.1494 231.629 97.9414 230.92 97.5254 230.408C97.1094 229.885 96.4907 229.624 95.6694 229.624C94.7947 229.624 94.112 229.928 93.6214 230.536C93.1307 231.133 92.8854 231.928 92.8854 232.92V233.032C92.8854 234.099 93.1467 234.909 93.6694 235.464C94.2027 236.019 94.944 236.296 95.8934 236.296C96.384 236.296 96.8427 236.221 97.2694 236.072C97.696 235.923 98.1067 235.667 98.5014 235.304L98.9014 236.024C98.56 236.376 98.1174 236.648 97.5734 236.84C97.0294 237.032 96.464 237.128 95.8774 237.128ZM101.125 237V230.776C101.125 230.488 101.114 230.195 101.093 229.896C101.072 229.597 101.04 229.293 100.997 228.984H101.957L102.101 230.824H101.909C102.112 230.195 102.448 229.709 102.917 229.368C103.386 229.016 103.957 228.84 104.629 228.84C105.312 228.84 105.866 229.005 106.293 229.336C106.72 229.667 107.002 230.179 107.141 230.872H106.901C107.093 230.253 107.445 229.763 107.957 229.4C108.469 229.027 109.072 228.84 109.765 228.84C110.64 228.84 111.301 229.091 111.749 229.592C112.197 230.093 112.421 230.877 112.421 231.944V237H111.445V232.008C111.445 231.197 111.301 230.611 111.013 230.248C110.725 229.875 110.256 229.688 109.605 229.688C108.88 229.688 108.304 229.933 107.877 230.424C107.461 230.915 107.253 231.576 107.253 232.408V237H106.277V232.008C106.277 231.197 106.133 230.611 105.845 230.248C105.557 229.875 105.093 229.688 104.453 229.688C103.728 229.688 103.152 229.933 102.725 230.424C102.309 230.915 102.101 231.576 102.101 232.408V237H101.125Z" fill="#7D7987"/>
<g clip-path="url(#clip0_33_16)">
<path d="M62.8574 26.4806L62.6657 66.2815L62.6338 73.9797C62.6018 80.0968 56.7882 85.0319 49.633 85L13.8889 84.8403C6.74971 84.7924 0.968057 79.8093 1 73.6762L1.2236 26.1772C1.23957 21.226 5.07271 17.0415 10.3113 15.652L10.3273 13.0966V11.7869L53.8814 11.9946L53.8654 15.8596C59.0881 17.313 62.8733 21.5135 62.8574 26.4806Z" fill="url(#paint0_linear_33_16)"/>
<path d="M57.1236 1.77283V2.1242L57.0917 6.27678L57.0598 10.3495V10.8446C57.0598 11.6112 56.4209 12.2341 55.6543 12.2341H55.3189L53.2106 12.2182L50.8948 12.2022L48.7866 12.1862L46.4707 12.1702L44.3305 12.1383L42.0147 12.1223L39.9064 12.1064L37.5746 12.0904L35.4504 12.0744L33.1345 12.0584L31.0263 12.0265L28.7105 12.0105L26.6022 11.9945L24.2704 11.9786L22.1462 11.9626L19.8463 11.9466L17.7381 11.9307L15.4222 11.9147L13.298 11.8987L10.9822 11.8828L8.85795 11.8668H8.52255C7.75593 11.8668 7.13304 11.2279 7.13304 10.4613V10.4453V10.0939L7.19692 1.88463V1.38952C7.19692 0.622886 7.83578 0 8.61838 0H8.95378L13.3938 0.0319429L17.8339 0.0638858L19.9581 0.0798572L22.274 0.0958286L24.3822 0.1118L28.8063 0.159714L31.1221 0.175686L33.2304 0.191657L35.5462 0.207629L37.6545 0.2236L39.9703 0.239572L42.0786 0.255543L44.3944 0.271514L46.5026 0.287486L48.8504 0.319429L50.9587 0.3354L53.2745 0.351372L55.3987 0.367343H55.7341C56.5167 0.383315 57.1236 1.0062 57.1236 1.77283Z" fill="url(#paint1_linear_33_16)"/>
<path d="M57.1236 2.14019L57.0917 6.27679L57.0598 10.3495L55.1592 10.3335L52.6357 10.3176L50.3198 10.3016H47.7804L45.4645 10.2856L42.941 10.2697L40.6251 10.2537H38.0857L35.7698 10.2377L33.2304 10.2217L30.9305 10.2058H28.391L26.0752 10.1898L23.5357 10.1738L21.2198 10.1579H18.6964L16.3805 10.1419L13.841 10.1259L11.5252 10.1099H9.0017L7.13304 10.094L7.19692 1.88464L11.637 1.90061L16.4763 1.93256L18.7922 1.94853L21.3316 1.9645H23.6475L28.4869 1.99644L31.0263 2.01242H33.3422L35.8816 2.02839L38.1815 2.04436L40.721 2.06033H43.0368L45.5763 2.0763L47.8762 2.09227L50.4156 2.10824H52.7315L55.271 2.12422L57.1236 2.14019Z" fill="url(#paint2_linear_33_16)"/>
<path d="M62.8105 34.8841L1.17676 34.5927L1.04753 61.9198L62.6813 62.2112L62.8105 34.8841Z" fill="#F7F9FC"/>
<path d="M62.8215 34.884L1.18766 34.5927L1.1644 39.5119L62.7982 39.8032L62.8215 34.884Z" fill="#FBFCF7"/>
<path d="M25.2127 45.5803L21.2358 45.5644L21.2518 41.5715L15.7736 41.5555L15.7576 45.5324L11.7807 45.5165L11.7488 50.9787L15.7257 50.9947L15.7097 54.9875L21.1879 55.0035L21.2039 51.0266L25.1808 51.0426L25.2127 45.5803Z" fill="url(#paint3_linear_33_16)"/>
<path d="M52.2364 46.906L32.5276 46.8102C32.0006 46.8102 31.5693 46.379 31.5693 45.8519V45.4047C31.5693 44.8776 32.0006 44.4464 32.5276 44.4464L52.2364 44.5422C52.7634 44.5422 53.1947 44.9735 53.1947 45.5005V45.9477C53.1947 46.4748 52.7634 46.906 52.2364 46.906Z" fill="url(#paint4_linear_33_16)"/>
<path opacity="0.5" d="M52.2204 52.7675L32.5116 52.6717C31.9846 52.6717 31.5534 52.2405 31.5534 51.7134V51.2662C31.5534 50.7392 31.9846 50.3079 32.5116 50.3079L52.2204 50.4038C52.7475 50.4038 53.1787 50.835 53.1787 51.362V51.8092C53.1787 52.3363 52.7475 52.7675 52.2204 52.7675Z" fill="url(#paint5_linear_33_16)"/>
<path opacity="0.08" d="M7.13304 1.77286V2.12423L7.16498 6.2768L7.19692 10.3335V10.8287C7.19692 11.5953 7.83578 12.2182 8.60241 12.2182H8.93781L11.062 12.2022L13.3779 12.1862L15.4861 12.1703L17.802 12.1543L19.9102 12.1383L22.226 12.1223L24.3343 12.1064L26.6501 12.0904L28.7743 12.0744L31.0902 12.0585L33.1984 12.0425L35.5143 12.0265L37.6225 12.0105L39.9384 11.9946L42.0626 11.9786L44.3784 11.9626L46.4867 11.9467L48.8025 11.9307L50.9108 11.9147L53.2266 11.8987L55.3508 11.8828H55.6862C56.4528 11.8828 57.0757 11.2439 57.0757 10.4773V10.4613V10.1099C32.3679 11.18 8.52255 0.367371 8.52255 0.367371C7.75593 0.383342 7.13304 1.00623 7.13304 1.77286Z" fill="#1A6FB5"/>
</g>
<defs>
<linearGradient id="paint0_linear_33_16" x1="1" y1="11.3333" x2="58.1389" y2="90.1944" gradientUnits="userSpaceOnUse">
<stop stop-color="#6CBCFC"/>
<stop offset="1" stop-color="#458DFC"/>
</linearGradient>
<linearGradient id="paint1_linear_33_16" x1="-628.93" y1="-39.931" x2="-26.6041" y2="2.02206" gradientUnits="userSpaceOnUse">
<stop stop-color="#B0F4FF"/>
<stop offset="0.0525488" stop-color="#A9F2FF"/>
<stop offset="0.2879" stop-color="#8DE8FE"/>
<stop offset="0.5247" stop-color="#79E1FD"/>
<stop offset="0.7618" stop-color="#6DDDFC"/>
<stop offset="1" stop-color="#69DCFC"/>
</linearGradient>
<linearGradient id="paint2_linear_33_16" x1="7.13994" y1="6.11313" x2="57.1258" y2="6.11313" gradientUnits="userSpaceOnUse">
<stop stop-color="#B0F4FF"/>
<stop offset="0.0525488" stop-color="#A9F2FF"/>
<stop offset="0.2879" stop-color="#8DE8FE"/>
<stop offset="0.5247" stop-color="#79E1FD"/>
<stop offset="0.7618" stop-color="#6DDDFC"/>
<stop offset="1" stop-color="#69DCFC"/>
</linearGradient>
<linearGradient id="paint3_linear_33_16" x1="22.9779" y1="43.0953" x2="13.5975" y2="53.9124" gradientUnits="userSpaceOnUse">
<stop stop-color="#6CBCFC"/>
<stop offset="1" stop-color="#458DFC"/>
</linearGradient>
<linearGradient id="paint4_linear_33_16" x1="53.3847" y1="45.671" x2="29.8866" y2="45.671" gradientUnits="userSpaceOnUse">
<stop stop-color="#6CBCFC"/>
<stop offset="1" stop-color="#458DFC"/>
</linearGradient>
<linearGradient id="paint5_linear_33_16" x1="31.5519" y1="51.5322" x2="53.179" y2="51.5322" gradientUnits="userSpaceOnUse">
<stop stop-color="#6CBCFC"/>
<stop offset="1" stop-color="#458DFC"/>
</linearGradient>
<clipPath id="clip0_33_16">
<rect width="61.8574" height="85" fill="white" transform="translate(1)"/>
</clipPath>
</defs>
</svg>
